<svg class="svg-icon" style="width: 1em; height: 1em;vertical-align: middle;fill: currentColor;overflow: hidden;" viewBox="0 0 1024 1024" version="1.1" xmlns="http://www.w3.org/2000/svg"><path d="M571.7504 595.6608c114.3296-40.1408 196.9152-153.9584 196.9152-287.744C768.6656 140.4928 635.2896 0 476.4672 0S184.2176 140.544 184.2176 307.8656c0 140.544 88.9344 254.3104 203.264 294.5024C190.6176 642.5088 38.144 809.8304 0 1024h57.1904c38.0928-207.4624 215.9616-368.128 425.6256-368.128 82.5856 0 158.8224 26.7776 222.3104 66.9696h101.6832c-63.5392-66.9696-146.1248-113.8176-235.0592-127.1808z m-95.2832-40.1408c-133.4272 0-235.0592-113.8176-235.0592-247.6544 0-140.544 108.032-247.6544 235.008-247.6544 133.4272 0 235.0592 113.8176 235.0592 247.6544s-101.632 247.6544-235.008 247.6544zM713.728 800c0 16.0256 13.4656 32 26.9312 32h256.3584c13.4656 0 26.9824-16.0256 26.9824-32 0-16.0256-13.5168-32-26.9824-32h-256.3584c-13.4656 7.9872-26.9824 16.0256-26.9824 32zM997.0176 864h-256.3584c-13.4656 0-26.9824 16.0256-26.9824 32 0 16.0256 13.5168 32 26.9824 32h256.3584c13.4656 0 26.9824-16.0256 26.9824-32 0-16.0256-13.5168-32-26.9824-32zM997.0176 960h-256.3584c-13.4656 0-26.9824 16.0256-26.9824 32 0 16.0256 13.5168 32 26.9824 32h256.3584c13.4656 0 26.9824-16.0256 26.9824-32 0-16.0256-13.5168-32-26.9824-32z" fill="#97999F" /></svg>